<svg xmlns="http://www.w3.org/2000/svg" fill-rule="evenodd" stroke-linejoin="round" stroke-miterlimit="2" clip-rule="evenodd" viewBox="0 0 134 134" id="kurma"><path d="M66.658,27.106c-10.542,-7.323 -21.169,-12.067 -30.434,-13.82c-10.714,-2.026 -19.76,-0.078 -25.554,5.717l-0.001,-0c-5.794,5.794 -7.742,14.84 -5.716,25.554c2.108,11.147 8.547,24.265 18.598,36.836c-4.538,13.85 -3.258,25.894 3.785,32.937c3.612,3.612 8.436,5.728 14.148,6.327c7.197,0.754 15.936,-0.96 25.198,-4.997c4.787,2.09 9.423,3.566 13.761,4.387c10.714,2.026 19.76,0.078 25.554,-5.717c5.795,-5.794 7.743,-14.84 5.716,-25.554c-0.449,-2.377 -1.096,-4.844 -1.932,-7.374c11.062,-13.822 17.723,-28.314 19.107,-40.146c1.084,-9.274 -1.025,-17.054 -6.224,-22.253c-4.81,-4.81 -11.81,-6.976 -20.168,-6.416c-10.443,0.699 -23.209,5.738 -35.838,14.519Zm-50.096,-2.211c4.079,-4.079 10.571,-4.847 18.113,-3.42c13.053,2.468 28.953,11.661 43.071,25.779c14.118,14.118 23.311,30.018 25.779,43.07c1.427,7.543 0.658,14.035 -3.42,18.114c-4.079,4.079 -10.571,4.847 -18.114,3.42c-13.053,-2.468 -28.952,-11.661 -43.07,-25.779c-14.118,-14.118 -23.311,-30.017 -25.78,-43.07c-1.426,-7.543 -0.658,-14.035 3.421,-18.114l0,0Zm13.505,64.017c-1.889,8.169 -1.208,15.155 3.162,19.526c2.958,2.958 7.245,4.151 12.254,4.057c3.454,-0.064 7.223,-0.742 11.187,-1.971c-0.467,-0.277 -0.927,-0.559 -1.38,-0.846c-7.515,-4.604 -15.111,-10.556 -22.262,-17.706l-2.961,-3.06Zm47.091,13.515c3.161,1.825 6.625,2.775 10.174,2.918c2.298,0.092 4.239,-1.698 4.331,-3.996c0.093,-2.298 -1.698,-4.239 -3.995,-4.331c-2.212,-0.089 -4.374,-0.67 -6.343,-1.808c-1.992,-1.149 -4.542,-0.466 -5.692,1.525c-1.15,1.992 -0.466,4.542 1.525,5.692Zm-34.74,-28.751c2.09,2.992 4.825,5.32 7.98,6.952c2.042,1.058 4.559,0.258 5.616,-1.784c1.057,-2.043 0.257,-4.559 -1.785,-5.616c-1.966,-1.018 -3.677,-2.46 -4.98,-4.325c-1.317,-1.885 -3.917,-2.346 -5.802,-1.029c-1.885,1.317 -2.346,3.916 -1.029,5.802Zm31.552,-2.53c1.724,1.483 2.988,3.331 3.803,5.389c0.847,2.138 3.27,3.186 5.408,2.339c2.138,-0.847 3.186,-3.27 2.339,-5.409c-1.308,-3.302 -3.349,-6.257 -6.117,-8.637c-1.743,-1.5 -4.376,-1.302 -5.875,0.442c-1.5,1.744 -1.302,4.377 0.442,5.876Zm29.182,-4.477c1.095,1.936 2.099,3.862 3.008,5.768c8.236,-11.211 13.335,-22.604 14.451,-32.149c0.744,-6.367 -0.27,-11.823 -3.84,-15.393c-3.247,-3.247 -8.075,-4.371 -13.718,-3.994c-8.616,0.577 -18.941,4.649 -29.349,11.496l0.001,0.001c1.581,1.282 3.153,2.623 4.711,4.019c7.37,-4.338 16.245,-8.231 22.721,-8.867c4.389,-0.431 7.909,0.603 10.143,2.837c2.375,2.375 3.438,6.134 2.906,10.813c-0.826,7.27 -5.574,17.324 -11.034,25.469Zm-4.918,-7.835l0.03,0.028c3.184,-5.214 5.901,-10.927 7.117,-15.798c0.458,-1.835 0.704,-3.522 0.586,-4.965c-0.06,-0.734 -0.15,-1.39 -0.58,-1.819c-0.353,-0.354 -0.9,-0.411 -1.502,-0.466c-1.302,-0.121 -2.822,0.081 -4.475,0.46c-4.538,1.042 -9.874,3.437 -14.725,6.146l-0,-0c5.194,5.313 9.73,10.854 13.549,16.414Zm-77.401,-21.334c0,3.65 0.91,7.125 2.561,10.27c1.069,2.036 3.59,2.821 5.626,1.753c2.036,-1.069 2.821,-3.59 1.753,-5.626c-1.029,-1.96 -1.606,-4.123 -1.606,-6.397c-0,-2.3 -1.867,-4.167 -4.167,-4.167c-2.3,0 -4.167,1.867 -4.167,4.167Zm35.312,4.128c-2.581,-2.581 -5.681,-4.395 -9.072,-5.451c-2.196,-0.684 -4.534,0.543 -5.218,2.738c-0.684,2.196 0.543,4.534 2.739,5.218c2.113,0.658 4.051,1.779 5.659,3.387c1.626,1.627 4.266,1.627 5.892,0c1.626,-1.626 1.626,-4.266 0,-5.892Z"></path></svg>